<svg id="svg" version="1.1" xmlns="http://www.w3.org/2000/svg" xmlns:xlink="http://www.w3.org/1999/xlink" width="400" height="119.1740412979351" viewBox="0, 0, 400,119.1740412979351"><g id="svgg"><path id="path0" d="M31.000 0.323 C 31.000 0.582,30.842 0.669,30.208 0.758 C 28.424 1.011,27.506 1.309,26.821 1.858 C 25.905 2.593,24.667 3.827,24.667 4.006 C 24.667 4.084,23.984 4.846,23.151 5.699 C 22.317 6.552,21.442 7.550,21.206 7.917 C 20.971 8.283,20.424 8.958,19.991 9.417 C 19.558 9.875,18.823 10.737,18.357 11.333 C 17.891 11.929,17.062 12.904,16.515 13.500 C 15.968 14.096,15.197 14.981,14.802 15.466 C 14.407 15.952,13.596 16.892,13.000 17.554 C 12.404 18.217,11.617 19.155,11.250 19.638 C 10.883 20.122,10.148 20.982,9.616 21.550 C 9.083 22.118,8.258 23.063,7.782 23.649 C 7.306 24.235,6.467 25.213,5.917 25.822 C 4.110 27.822,2.749 30.014,2.392 31.500 C 1.846 33.772,2.184 41.007,2.893 42.233 C 3.110 42.609,3.380 43.307,3.492 43.783 C 3.604 44.260,3.814 44.748,3.958 44.867 C 4.102 44.986,4.377 45.421,4.568 45.833 C 5.655 48.171,10.710 52.602,12.917 53.151 C 13.375 53.265,13.983 53.502,14.267 53.677 C 15.834 54.645,23.501 54.641,25.359 53.673 C 25.727 53.481,26.388 53.247,26.826 53.153 C 27.264 53.059,28.002 52.742,28.465 52.449 C 28.928 52.156,29.519 51.785,29.779 51.625 C 31.192 50.749,33.301 48.839,34.355 47.481 L 34.793 46.917 35.737 47.917 C 36.257 48.467,36.817 49.067,36.981 49.250 C 37.644 49.987,40.274 52.000,40.575 52.000 C 40.686 52.000,41.108 52.219,41.513 52.487 C 41.918 52.755,42.475 53.027,42.750 53.091 C 43.025 53.156,43.737 53.418,44.333 53.674 C 46.655 54.673,52.759 54.728,54.951 53.770 C 55.482 53.538,56.251 53.263,56.661 53.158 C 58.490 52.691,62.111 49.928,64.037 47.531 C 64.195 47.334,64.420 47.203,64.537 47.240 C 64.654 47.276,64.955 47.350,65.205 47.405 C 65.485 47.466,65.762 47.700,65.922 48.011 C 66.272 48.688,68.012 50.412,68.699 50.764 C 69.002 50.919,69.496 51.261,69.797 51.523 C 70.099 51.785,70.429 52.000,70.532 52.000 C 70.634 52.000,70.951 52.176,71.234 52.391 C 71.518 52.607,72.050 52.878,72.417 52.994 C 72.783 53.111,73.571 53.416,74.167 53.672 C 76.242 54.565,82.519 54.721,84.621 53.932 C 87.052 53.018,87.613 52.782,87.839 52.578 C 87.980 52.450,88.386 52.224,88.742 52.076 C 89.573 51.729,90.355 51.107,92.323 49.228 C 93.199 48.391,94.157 47.584,94.450 47.436 L 94.983 47.167 96.616 48.855 C 97.515 49.783,98.485 50.702,98.772 50.896 C 99.059 51.091,99.847 51.630,100.522 52.095 C 101.208 52.567,102.118 53.032,102.583 53.149 C 103.042 53.264,103.649 53.502,103.933 53.677 C 105.500 54.645,113.167 54.641,115.026 53.673 C 115.394 53.481,116.083 53.241,116.556 53.140 C 117.029 53.039,117.632 52.776,117.895 52.555 C 118.158 52.335,118.636 52.045,118.956 51.911 C 119.276 51.777,119.790 51.461,120.097 51.209 C 122.231 49.456,122.670 49.057,123.141 48.441 C 124.407 46.786,124.889 46.074,125.119 45.514 C 125.255 45.185,125.502 44.767,125.668 44.583 C 125.835 44.400,126.093 43.837,126.242 43.333 C 126.523 42.382,126.694 41.878,127.121 40.750 C 127.728 39.142,127.572 31.557,126.917 30.833 C 126.778 30.681,126.542 30.187,126.391 29.736 C 126.239 29.285,125.883 28.640,125.600 28.302 C 125.316 27.964,124.783 27.297,124.417 26.820 C 124.050 26.343,123.300 25.453,122.750 24.841 C 122.200 24.230,121.412 23.302,121.000 22.781 C 120.587 22.259,119.853 21.401,119.368 20.874 C 118.883 20.348,118.096 19.438,117.618 18.853 C 117.141 18.269,116.263 17.250,115.667 16.589 C 115.071 15.928,114.283 14.990,113.917 14.504 C 113.550 14.018,113.022 13.387,112.743 13.102 C 111.976 12.318,110.039 10.101,109.620 9.528 C 108.746 8.333,105.289 4.377,104.000 3.097 C 102.284 1.394,101.674 1.080,99.427 0.743 C 98.833 0.654,98.667 0.560,98.667 0.314 C 98.667 0.007,97.877 0.000,64.833 0.000 C 31.468 0.000,31.000 0.004,31.000 0.323 M99.388 7.061 C 99.687 7.186,100.074 7.504,100.247 7.769 C 100.420 8.034,100.733 8.438,100.943 8.667 C 101.393 9.158,103.791 11.969,104.552 12.898 C 104.844 13.254,105.308 13.791,105.583 14.091 C 106.071 14.624,106.816 15.484,107.813 16.667 C 108.083 16.987,108.892 17.937,109.611 18.778 C 110.329 19.618,111.179 20.625,111.500 21.016 C 112.149 21.806,112.954 22.726,113.833 23.684 C 114.154 24.033,114.617 24.566,114.862 24.868 C 115.107 25.170,115.857 26.062,116.529 26.850 C 117.200 27.639,118.109 28.726,118.547 29.267 C 118.986 29.808,119.586 30.521,119.881 30.852 C 120.176 31.184,120.642 31.821,120.917 32.269 L 121.417 33.083 121.417 36.250 C 121.417 39.363,121.409 39.429,120.981 40.167 C 120.741 40.579,120.449 41.213,120.332 41.574 C 119.766 43.323,116.999 46.278,115.167 47.089 C 114.846 47.231,114.208 47.530,113.750 47.754 C 112.108 48.554,107.019 48.656,105.667 47.916 C 105.438 47.791,104.800 47.457,104.250 47.174 C 101.397 45.708,100.301 44.562,98.822 41.500 C 98.151 40.112,97.969 39.345,97.748 36.982 C 97.509 34.425,95.322 32.997,93.211 34.019 C 92.265 34.477,92.053 34.829,91.818 36.336 C 91.506 38.333,90.684 41.535,90.371 41.973 C 90.213 42.195,89.971 42.578,89.833 42.825 C 89.238 43.894,87.601 45.660,86.646 46.263 C 86.306 46.478,85.981 46.729,85.924 46.822 C 85.866 46.915,85.504 47.074,85.118 47.175 C 84.732 47.276,84.154 47.537,83.833 47.755 C 82.509 48.655,77.300 48.670,75.577 47.779 C 75.122 47.544,74.525 47.298,74.250 47.233 C 73.734 47.109,72.712 46.306,71.410 45.000 C 70.079 43.665,69.837 43.380,69.624 42.894 C 69.509 42.632,69.219 42.079,68.980 41.667 C 68.689 41.166,68.397 40.169,68.100 38.667 C 67.247 34.335,67.270 34.388,66.041 33.958 C 63.433 33.048,61.852 34.517,61.498 38.176 C 61.288 40.353,61.203 40.652,60.382 42.101 C 59.073 44.411,56.681 46.720,54.972 47.321 C 54.483 47.494,53.840 47.760,53.543 47.912 C 52.086 48.661,47.489 48.584,45.888 47.783 C 45.446 47.562,44.858 47.327,44.583 47.261 C 43.896 47.096,42.622 46.082,41.242 44.602 C 39.491 42.725,39.157 42.249,38.902 41.274 C 38.773 40.782,38.509 40.019,38.314 39.578 C 38.076 39.040,37.935 38.309,37.885 37.347 C 37.742 34.593,36.343 33.247,34.218 33.819 C 32.449 34.296,31.981 35.033,31.822 37.591 C 31.720 39.210,31.644 39.549,31.187 40.406 C 30.901 40.942,30.667 41.514,30.667 41.677 C 30.667 41.841,30.495 42.186,30.285 42.446 C 30.074 42.705,29.774 43.121,29.617 43.370 C 28.763 44.728,26.774 46.525,25.500 47.089 C 25.179 47.231,24.542 47.530,24.083 47.754 C 22.441 48.554,17.352 48.656,16.000 47.916 C 15.771 47.791,15.133 47.457,14.583 47.174 C 11.729 45.707,10.628 44.556,9.158 41.500 C 7.942 38.974,7.677 33.091,8.729 31.977 C 8.924 31.770,9.233 31.358,9.417 31.062 C 9.600 30.765,10.431 29.786,11.264 28.886 C 12.097 27.986,12.875 27.063,12.993 26.833 C 13.219 26.395,13.480 26.101,15.223 24.320 C 15.813 23.716,16.413 23.004,16.557 22.736 C 16.700 22.469,17.571 21.437,18.492 20.444 C 19.413 19.450,20.167 18.550,20.167 18.444 C 20.167 18.337,20.917 17.477,21.834 16.532 C 22.750 15.587,23.500 14.746,23.500 14.663 C 23.500 14.500,24.514 13.310,25.912 11.833 C 26.389 11.329,26.972 10.617,27.207 10.250 C 27.800 9.325,30.012 7.053,30.417 6.954 C 31.319 6.732,98.852 6.837,99.388 7.061 M216.250 16.756 C 215.425 16.871,214.542 17.047,214.289 17.146 C 214.035 17.246,213.060 17.446,212.122 17.591 C 211.069 17.755,210.034 18.034,209.417 18.323 C 208.867 18.580,208.117 18.843,207.750 18.907 C 207.383 18.971,206.821 19.202,206.500 19.421 C 206.179 19.640,205.615 19.926,205.246 20.056 C 204.878 20.185,204.300 20.470,203.962 20.687 C 203.623 20.905,203.000 21.308,202.576 21.583 C 202.153 21.858,201.644 22.174,201.445 22.285 C 200.204 22.976,196.243 27.438,195.921 28.507 C 195.853 28.732,195.580 29.262,195.314 29.684 C 195.048 30.106,194.710 30.856,194.563 31.351 C 194.417 31.845,194.152 32.534,193.975 32.881 C 193.280 34.246,193.196 40.655,193.842 43.000 C 194.610 45.785,195.327 47.295,196.871 49.379 C 198.386 51.425,198.607 51.684,199.087 51.977 C 199.360 52.143,200.007 52.667,200.525 53.141 C 201.043 53.615,201.720 54.109,202.028 54.238 C 202.337 54.367,202.739 54.637,202.920 54.839 C 203.102 55.041,203.625 55.385,204.083 55.605 C 204.542 55.825,205.104 56.114,205.333 56.248 C 205.563 56.381,206.088 56.645,206.500 56.834 C 206.912 57.023,207.512 57.315,207.833 57.482 C 209.358 58.276,210.650 58.840,211.333 59.009 C 211.746 59.111,212.384 59.368,212.752 59.581 C 213.120 59.794,213.907 60.060,214.502 60.173 C 215.097 60.286,215.825 60.523,216.120 60.700 C 216.415 60.876,217.353 61.162,218.204 61.334 C 219.054 61.505,220.103 61.802,220.533 61.994 C 220.964 62.185,221.752 62.421,222.283 62.517 C 222.815 62.614,223.662 62.872,224.167 63.091 C 224.671 63.310,225.595 63.605,226.221 63.745 C 226.847 63.886,227.674 64.186,228.059 64.411 C 228.443 64.636,229.168 64.908,229.670 65.016 C 230.173 65.123,230.747 65.338,230.946 65.495 C 231.146 65.651,231.671 65.916,232.113 66.083 C 232.555 66.250,233.142 66.553,233.417 66.756 C 233.692 66.959,234.217 67.221,234.583 67.338 C 234.950 67.455,235.475 67.721,235.750 67.929 C 236.025 68.137,236.459 68.360,236.715 68.423 C 237.795 68.693,241.119 72.182,241.919 73.885 C 242.143 74.361,242.469 74.996,242.645 75.297 C 242.846 75.642,243.036 76.473,243.158 77.547 C 243.265 78.484,243.412 79.605,243.485 80.040 C 243.703 81.337,243.094 85.209,242.508 86.248 C 242.249 86.708,241.981 87.271,241.913 87.500 C 241.845 87.729,241.555 88.193,241.270 88.531 C 240.984 88.870,240.450 89.522,240.083 89.982 C 239.335 90.921,238.084 91.943,236.445 92.958 C 236.186 93.119,235.600 93.486,235.143 93.775 C 234.687 94.064,234.036 94.350,233.698 94.410 C 233.360 94.471,232.719 94.709,232.274 94.938 C 231.829 95.167,230.890 95.456,230.188 95.580 C 229.485 95.703,228.442 95.926,227.869 96.074 C 225.351 96.727,218.618 96.822,216.945 96.230 C 216.563 96.094,215.289 95.838,214.114 95.660 C 212.656 95.439,211.617 95.177,210.837 94.835 C 210.208 94.559,209.641 94.333,209.576 94.333 C 209.333 94.333,206.386 92.825,205.838 92.420 C 205.525 92.189,205.170 92.000,205.049 92.000 C 204.622 92.000,200.667 88.040,200.667 87.613 C 200.667 87.529,200.414 87.114,200.106 86.689 C 199.797 86.264,199.448 85.617,199.330 85.250 C 199.212 84.883,198.966 84.296,198.784 83.945 C 198.558 83.510,198.358 82.503,198.154 80.779 C 197.990 79.388,197.851 78.230,197.845 78.206 C 197.639 77.405,191.907 77.129,191.196 77.886 C 190.762 78.347,190.750 78.741,191.077 81.806 C 191.250 83.424,191.413 84.216,191.679 84.722 C 191.880 85.104,192.144 85.842,192.267 86.361 C 192.389 86.880,192.717 87.664,192.995 88.102 C 193.273 88.540,193.500 89.000,193.500 89.124 C 193.500 89.247,193.669 89.518,193.875 89.726 C 194.198 90.051,194.649 90.671,195.833 92.413 C 196.160 92.893,198.463 95.119,199.000 95.472 C 199.229 95.623,199.741 95.991,200.138 96.290 C 200.534 96.589,200.938 96.833,201.034 96.833 C 201.131 96.833,201.500 97.096,201.855 97.417 C 202.210 97.737,202.600 98.000,202.722 98.000 C 202.843 98.000,203.276 98.221,203.684 98.491 C 204.092 98.761,204.783 99.062,205.220 99.160 C 205.657 99.258,206.292 99.521,206.632 99.746 C 206.972 99.970,207.764 100.273,208.393 100.418 C 209.021 100.563,209.707 100.794,209.916 100.932 C 210.125 101.069,211.251 101.328,212.419 101.507 C 213.586 101.686,214.925 101.947,215.395 102.088 C 217.653 102.762,225.470 102.802,228.500 102.156 C 229.371 101.970,230.749 101.705,231.562 101.568 C 232.375 101.430,233.350 101.200,233.728 101.057 C 234.107 100.913,234.867 100.650,235.417 100.471 C 235.967 100.293,236.792 99.966,237.250 99.745 C 237.708 99.523,238.409 99.229,238.807 99.090 C 239.205 98.951,239.754 98.649,240.028 98.419 C 240.302 98.188,240.630 98.000,240.757 98.000 C 240.884 98.000,241.235 97.790,241.536 97.534 C 241.837 97.278,242.308 96.928,242.583 96.757 C 243.664 96.083,246.285 93.570,246.675 92.833 C 246.845 92.513,247.175 92.073,247.409 91.858 C 247.642 91.642,247.833 91.379,247.833 91.274 C 247.833 91.168,248.091 90.719,248.407 90.276 C 248.722 89.832,249.029 89.232,249.089 88.943 C 249.149 88.653,249.380 88.025,249.602 87.545 C 250.908 84.730,251.003 76.256,249.755 73.842 C 249.594 73.533,249.320 72.861,249.144 72.350 C 248.968 71.839,248.650 71.158,248.436 70.836 C 248.223 70.514,247.846 69.912,247.599 69.500 C 246.893 68.319,246.159 67.333,245.987 67.333 C 245.900 67.333,245.698 67.122,245.539 66.863 C 245.022 66.021,241.470 63.214,239.808 62.333 C 239.375 62.104,238.554 61.673,237.983 61.376 C 237.412 61.079,236.823 60.725,236.674 60.590 C 236.524 60.455,235.932 60.224,235.357 60.076 C 234.782 59.929,234.056 59.635,233.745 59.424 C 233.433 59.212,232.898 58.987,232.557 58.923 C 232.215 58.859,231.585 58.629,231.158 58.412 C 230.730 58.195,229.890 57.904,229.291 57.766 C 228.692 57.627,227.909 57.360,227.551 57.174 C 227.193 56.987,226.454 56.752,225.908 56.651 C 225.363 56.551,224.502 56.294,223.995 56.081 C 223.488 55.868,222.445 55.574,221.675 55.428 C 220.906 55.282,220.046 55.044,219.763 54.899 C 219.481 54.753,218.593 54.455,217.790 54.237 C 216.987 54.018,216.162 53.730,215.957 53.598 C 215.751 53.465,215.008 53.211,214.304 53.032 C 213.601 52.853,212.813 52.558,212.554 52.377 C 212.295 52.195,211.783 51.949,211.417 51.831 C 211.050 51.713,210.525 51.450,210.250 51.248 C 209.975 51.045,209.525 50.803,209.250 50.710 C 208.713 50.528,207.127 49.539,206.586 49.049 C 206.405 48.885,205.955 48.556,205.586 48.319 C 204.802 47.815,202.833 45.753,202.833 45.436 C 202.833 45.316,202.686 45.085,202.506 44.922 C 202.326 44.759,202.052 44.279,201.897 43.855 C 201.742 43.430,201.389 42.558,201.112 41.917 C 200.480 40.451,200.360 36.081,200.913 34.667 C 201.074 34.254,201.403 33.349,201.645 32.656 C 201.886 31.963,202.252 31.184,202.458 30.925 C 202.665 30.667,202.833 30.404,202.833 30.341 C 202.833 29.951,206.664 26.428,207.620 25.938 C 207.916 25.787,208.420 25.485,208.740 25.268 C 209.060 25.050,209.606 24.821,209.953 24.757 C 210.300 24.694,210.889 24.465,211.262 24.248 C 211.647 24.025,212.586 23.741,213.429 23.593 C 214.247 23.449,215.329 23.219,215.833 23.081 C 218.473 22.359,223.620 22.404,227.106 23.180 C 228.311 23.448,229.437 23.667,229.609 23.667 C 229.781 23.667,230.385 23.893,230.951 24.169 C 231.517 24.445,232.229 24.717,232.532 24.774 C 232.835 24.831,233.293 25.072,233.549 25.310 C 233.805 25.548,234.300 25.895,234.649 26.080 C 234.998 26.265,235.538 26.567,235.849 26.750 C 236.716 27.262,239.247 29.834,239.632 30.594 C 239.821 30.967,240.090 31.367,240.229 31.483 C 240.369 31.599,240.572 31.969,240.681 32.305 C 240.790 32.641,241.019 33.116,241.190 33.359 C 241.829 34.270,242.837 37.662,242.941 39.250 C 243.095 41.601,242.931 41.500,246.583 41.500 L 249.659 41.500 249.937 41.075 C 250.314 40.500,250.164 37.763,249.690 36.558 C 249.509 36.101,249.273 35.245,249.165 34.655 C 249.056 34.066,248.753 33.133,248.491 32.583 C 248.229 32.033,247.857 31.246,247.665 30.833 C 246.393 28.105,243.825 24.737,242.048 23.466 C 241.754 23.256,241.065 22.732,240.518 22.302 C 239.971 21.872,239.274 21.395,238.970 21.241 C 238.666 21.087,238.265 20.822,238.079 20.653 C 237.893 20.483,237.405 20.226,236.995 20.082 C 236.585 19.938,235.987 19.638,235.667 19.417 C 235.346 19.195,234.609 18.892,234.030 18.744 C 233.450 18.596,232.738 18.335,232.446 18.164 C 232.155 17.993,231.202 17.739,230.329 17.599 C 229.455 17.459,228.405 17.225,227.995 17.080 C 226.470 16.537,219.239 16.338,216.250 16.756 M268.948 23.503 C 267.952 23.802,268.000 23.409,268.000 31.241 L 268.000 38.442 267.614 38.804 C 267.236 39.159,267.129 39.167,262.368 39.167 L 257.508 39.167 257.212 39.617 C 256.978 39.974,256.905 40.503,256.862 42.182 C 256.788 45.060,256.312 44.833,262.435 44.833 C 266.820 44.833,267.331 44.862,267.646 45.125 L 267.996 45.417 268.046 67.667 C 268.095 89.688,268.099 89.930,268.447 91.250 C 268.640 91.983,268.891 93.145,269.004 93.831 C 269.130 94.591,269.354 95.276,269.578 95.581 C 269.781 95.857,270.047 96.346,270.170 96.667 C 270.491 97.505,272.918 100.333,273.317 100.333 C 273.404 100.333,273.686 100.510,273.946 100.726 C 274.205 100.943,274.679 101.201,275.000 101.300 C 275.321 101.400,276.321 101.712,277.223 101.993 C 280.023 102.866,284.624 102.859,287.333 101.976 C 288.989 101.437,289.000 101.420,289.000 99.302 C 289.000 96.313,288.682 95.955,286.348 96.310 C 280.557 97.191,277.171 95.616,275.647 91.333 L 275.083 89.750 275.038 67.565 C 274.996 46.993,275.013 45.363,275.272 45.148 C 275.496 44.962,276.716 44.907,281.477 44.869 C 288.750 44.810,288.072 45.114,287.960 41.961 C 287.851 38.883,288.573 39.199,281.496 39.136 C 275.742 39.085,275.504 39.071,275.262 38.750 C 275.047 38.465,275.010 37.378,275.005 31.245 C 274.999 22.421,275.350 23.328,271.949 23.348 C 270.556 23.356,269.206 23.425,268.948 23.503 M153.750 38.108 C 153.567 38.146,153.004 38.286,152.500 38.418 C 151.996 38.551,150.947 38.780,150.170 38.927 C 148.978 39.152,146.945 39.929,146.000 40.520 C 145.862 40.606,145.300 40.904,144.750 41.181 C 141.071 43.038,136.250 47.743,134.484 51.199 C 134.311 51.537,133.982 52.091,133.752 52.430 C 133.522 52.769,133.333 53.173,133.333 53.328 C 133.333 53.483,133.115 53.941,132.847 54.346 C 132.580 54.752,132.239 55.555,132.091 56.132 C 131.942 56.709,131.679 57.459,131.505 57.799 C 131.331 58.139,131.037 59.279,130.851 60.333 C 130.665 61.387,130.386 62.663,130.231 63.167 C 129.873 64.334,129.782 75.854,130.117 77.667 C 130.404 79.224,131.002 81.806,131.255 82.583 C 131.726 84.030,132.503 86.017,132.739 86.376 C 132.876 86.585,133.105 87.090,133.249 87.498 C 133.393 87.906,133.654 88.393,133.828 88.579 C 134.002 88.765,134.301 89.283,134.492 89.730 C 134.684 90.177,134.984 90.702,135.161 90.897 C 135.337 91.091,135.767 91.605,136.116 92.038 C 137.896 94.250,138.500 94.927,139.417 95.735 C 139.967 96.221,140.660 96.743,140.958 96.897 C 141.256 97.050,141.500 97.246,141.500 97.332 C 141.500 97.549,143.985 99.167,144.318 99.167 C 144.468 99.167,144.861 99.389,145.190 99.661 C 145.520 99.933,146.112 100.228,146.505 100.316 C 146.898 100.404,147.433 100.634,147.694 100.827 C 147.986 101.043,148.922 101.335,150.126 101.585 C 151.203 101.809,152.467 102.100,152.935 102.231 C 155.110 102.839,161.860 102.699,164.129 101.998 C 164.716 101.817,165.694 101.589,166.302 101.492 C 166.928 101.392,167.772 101.109,168.246 100.842 C 168.706 100.582,169.325 100.318,169.619 100.256 C 169.914 100.193,170.428 99.958,170.761 99.732 C 171.094 99.506,171.569 99.230,171.816 99.119 C 174.071 98.105,179.062 93.276,179.287 91.890 C 179.375 91.348,178.008 89.705,177.444 89.674 C 177.367 89.670,176.992 89.448,176.611 89.182 C 175.601 88.476,175.238 88.407,174.881 88.855 C 174.242 89.656,170.605 93.167,170.415 93.167 C 170.303 93.167,169.935 93.388,169.595 93.657 C 169.255 93.927,168.701 94.236,168.364 94.342 C 168.026 94.449,167.481 94.717,167.153 94.938 C 166.825 95.159,166.009 95.454,165.341 95.593 C 164.672 95.732,163.928 95.948,163.687 96.072 C 162.234 96.820,154.848 96.901,153.250 96.186 C 152.792 95.981,151.902 95.704,151.274 95.572 C 150.645 95.439,149.917 95.178,149.656 94.992 C 149.395 94.807,148.934 94.572,148.632 94.472 C 148.330 94.371,147.858 94.082,147.583 93.829 C 147.308 93.576,146.775 93.215,146.399 93.027 C 145.135 92.394,141.882 88.761,140.500 86.437 C 140.271 86.052,139.950 85.552,139.786 85.327 C 139.622 85.101,139.369 84.504,139.223 84.000 C 139.076 83.496,138.813 82.879,138.637 82.630 C 138.462 82.381,138.219 81.706,138.097 81.130 C 137.976 80.554,137.713 79.558,137.514 78.917 C 136.768 76.518,136.568 71.371,137.204 70.926 C 137.534 70.695,139.865 70.667,158.863 70.667 C 182.289 70.667,180.920 70.732,181.089 69.601 C 181.247 68.547,181.079 64.032,180.779 61.250 C 180.419 57.921,180.358 57.583,179.907 56.417 C 179.695 55.867,179.438 54.996,179.337 54.481 C 179.235 53.967,178.969 53.297,178.745 52.993 C 178.521 52.689,178.290 52.173,178.233 51.845 C 178.175 51.518,177.919 50.913,177.662 50.500 C 177.406 50.087,177.078 49.487,176.932 49.167 C 176.688 48.626,175.969 47.597,174.754 46.049 C 172.940 43.736,168.911 40.751,166.584 39.997 C 166.218 39.878,165.602 39.612,165.215 39.407 C 164.829 39.201,164.116 38.981,163.631 38.916 C 163.147 38.852,161.908 38.620,160.878 38.400 C 159.108 38.022,154.978 37.853,153.750 38.108 M320.817 38.259 C 320.396 38.389,319.183 38.641,318.122 38.820 C 317.061 38.998,315.959 39.265,315.674 39.413 C 315.389 39.560,314.674 39.830,314.085 40.012 C 313.496 40.194,312.963 40.425,312.901 40.525 C 312.839 40.626,312.329 40.927,311.769 41.194 C 309.845 42.111,308.613 43.076,305.814 45.856 C 304.555 47.107,303.368 48.438,303.176 48.815 C 302.984 49.192,302.755 49.500,302.667 49.500 C 302.579 49.500,302.344 49.819,302.146 50.208 C 301.948 50.598,301.617 51.142,301.412 51.417 C 301.207 51.692,300.982 52.104,300.912 52.333 C 300.842 52.563,300.534 53.225,300.226 53.806 C 299.918 54.386,299.667 54.970,299.667 55.103 C 299.667 55.236,299.471 55.730,299.233 56.201 C 298.994 56.672,298.659 57.738,298.489 58.570 C 298.318 59.403,298.035 60.458,297.859 60.917 C 296.883 63.454,296.981 78.263,297.985 80.139 C 298.087 80.329,298.311 81.187,298.484 82.047 C 298.657 82.906,298.983 83.978,299.209 84.430 C 299.434 84.881,299.672 85.475,299.736 85.750 C 299.801 86.025,300.024 86.513,300.232 86.833 C 300.440 87.154,300.691 87.651,300.789 87.938 C 300.888 88.225,301.201 88.780,301.484 89.171 C 301.768 89.563,302.000 89.977,302.000 90.093 C 302.000 90.208,302.262 90.616,302.583 91.000 C 302.904 91.384,303.167 91.762,303.167 91.839 C 303.167 91.916,303.467 92.326,303.833 92.750 C 304.200 93.174,304.502 93.572,304.504 93.635 C 304.523 94.244,310.100 98.788,311.318 99.188 C 311.647 99.296,312.142 99.551,312.417 99.755 C 312.692 99.959,313.217 100.220,313.583 100.335 C 313.950 100.451,314.551 100.719,314.918 100.931 C 315.286 101.144,316.138 101.404,316.814 101.508 C 317.489 101.613,318.463 101.845,318.979 102.024 C 321.359 102.850,328.780 102.836,330.917 102.001 C 331.192 101.893,331.975 101.698,332.658 101.566 C 333.341 101.434,334.278 101.150,334.741 100.934 C 335.204 100.719,335.883 100.448,336.250 100.334 C 336.617 100.219,337.142 99.961,337.417 99.761 C 337.692 99.560,338.168 99.295,338.475 99.171 C 338.782 99.047,339.323 98.714,339.677 98.431 C 340.031 98.148,340.670 97.654,341.098 97.333 C 343.275 95.699,344.868 94.128,345.742 92.753 C 345.916 92.480,346.199 92.142,346.372 92.002 C 346.714 91.726,347.424 90.565,348.060 89.243 C 348.283 88.781,348.581 88.307,348.723 88.189 C 348.865 88.071,349.108 87.586,349.262 87.112 C 349.416 86.638,349.675 86.100,349.837 85.917 C 350.000 85.733,350.217 85.171,350.320 84.667 C 350.423 84.162,350.694 83.345,350.924 82.850 C 351.290 82.061,351.794 79.642,352.507 75.250 C 352.899 72.839,352.633 65.158,352.083 63.000 C 351.955 62.496,351.767 61.408,351.666 60.583 C 351.560 59.716,351.317 58.719,351.089 58.219 C 350.872 57.743,350.609 56.941,350.504 56.435 C 350.399 55.930,350.138 55.258,349.923 54.942 C 349.709 54.626,349.479 54.197,349.413 53.989 C 349.240 53.444,347.706 50.488,347.436 50.178 C 347.310 50.034,347.076 49.654,346.916 49.333 C 346.755 49.012,346.453 48.563,346.243 48.333 C 346.034 48.104,345.575 47.591,345.223 47.194 C 344.871 46.796,344.211 46.121,343.756 45.694 C 343.301 45.266,342.614 44.617,342.231 44.250 C 340.786 42.869,340.567 42.695,339.943 42.436 C 339.591 42.291,339.086 41.988,338.819 41.764 C 338.553 41.540,338.167 41.303,337.961 41.238 C 337.756 41.173,337.324 40.948,337.002 40.739 C 336.680 40.529,336.084 40.271,335.677 40.164 C 335.270 40.057,334.595 39.793,334.177 39.577 C 333.510 39.231,332.036 38.892,328.097 38.179 C 326.643 37.915,321.759 37.969,320.817 38.259 M387.417 38.349 C 386.683 38.524,385.571 38.780,384.946 38.917 C 384.320 39.055,383.495 39.346,383.112 39.564 C 382.730 39.782,382.214 40.008,381.965 40.065 C 381.717 40.122,381.305 40.364,381.049 40.602 C 380.793 40.840,380.321 41.172,380.000 41.339 C 378.999 41.863,375.167 45.869,375.167 46.392 C 375.167 46.816,374.561 47.211,374.203 47.020 C 373.771 46.788,373.671 46.075,373.669 43.212 C 373.667 40.690,373.442 39.659,372.824 39.328 C 372.261 39.027,367.409 39.124,367.145 39.442 C 366.759 39.907,366.722 100.767,367.107 101.193 C 367.476 101.600,372.145 101.653,373.084 101.260 L 373.658 101.021 373.714 79.635 C 373.774 56.449,373.757 56.869,374.666 55.713 C 374.838 55.494,375.101 54.949,375.249 54.503 C 375.397 54.057,375.635 53.596,375.777 53.478 C 375.919 53.360,376.207 52.885,376.417 52.423 C 377.078 50.971,379.654 48.339,381.500 47.229 C 381.912 46.981,382.400 46.653,382.583 46.499 C 382.767 46.346,383.779 45.928,384.833 45.571 L 386.750 44.921 390.833 44.864 C 394.263 44.817,394.963 44.765,395.208 44.545 C 395.710 44.092,395.640 39.351,395.125 38.887 C 394.123 37.986,390.110 37.705,387.417 38.349 M159.505 44.082 C 160.007 44.219,161.054 44.484,161.833 44.670 C 162.612 44.857,163.440 45.147,163.672 45.316 C 163.904 45.485,164.391 45.775,164.755 45.961 C 167.301 47.262,169.779 49.774,171.009 52.303 C 171.202 52.699,171.536 53.283,171.751 53.601 C 171.966 53.918,172.193 54.419,172.256 54.714 C 172.318 55.009,172.579 55.737,172.836 56.333 C 173.093 56.929,173.390 58.017,173.497 58.750 C 173.604 59.483,173.798 60.507,173.929 61.024 C 174.060 61.541,174.167 62.528,174.167 63.216 L 174.167 64.467 173.642 64.650 C 172.631 65.003,137.783 64.898,137.348 64.542 C 136.956 64.220,137.059 63.032,137.588 61.765 C 137.719 61.451,137.909 60.645,138.011 59.973 C 138.113 59.300,138.452 58.178,138.765 57.479 C 139.077 56.780,139.333 56.138,139.333 56.053 C 139.333 55.968,139.519 55.646,139.746 55.339 C 139.973 55.031,140.245 54.510,140.352 54.181 C 140.458 53.852,140.966 52.956,141.481 52.189 C 141.996 51.422,142.543 50.604,142.697 50.372 C 143.155 49.678,145.532 47.523,146.250 47.149 C 146.617 46.959,147.067 46.669,147.250 46.505 C 147.433 46.342,147.852 46.122,148.181 46.016 C 148.510 45.911,149.027 45.643,149.329 45.420 C 149.632 45.197,150.300 44.927,150.814 44.821 C 151.329 44.715,152.012 44.524,152.333 44.396 C 153.742 43.836,157.933 43.653,159.505 44.082 M328.917 44.304 C 329.467 44.493,330.346 44.725,330.871 44.818 C 331.844 44.991,333.668 45.895,335.252 46.990 C 335.724 47.316,336.559 47.895,337.107 48.277 C 337.656 48.658,338.317 49.258,338.577 49.610 C 338.837 49.962,339.135 50.325,339.239 50.417 C 339.344 50.508,339.606 50.835,339.822 51.143 C 340.038 51.451,340.361 51.863,340.539 52.060 C 341.009 52.579,342.166 54.385,342.166 54.602 C 342.166 54.703,342.381 55.191,342.643 55.685 C 342.905 56.179,343.215 56.883,343.332 57.250 C 343.450 57.617,343.722 58.269,343.938 58.699 C 344.154 59.132,344.446 60.213,344.590 61.116 C 344.734 62.015,345.008 63.237,345.201 63.833 C 345.878 65.933,345.798 75.848,345.089 77.543 C 344.960 77.853,344.734 78.814,344.588 79.678 C 344.441 80.544,344.135 81.617,343.906 82.066 C 343.677 82.515,343.413 83.226,343.319 83.646 C 343.225 84.066,342.979 84.636,342.772 84.913 C 342.565 85.190,342.295 85.679,342.171 86.000 C 342.047 86.321,341.812 86.734,341.648 86.919 C 341.484 87.104,341.225 87.551,341.074 87.914 C 340.643 88.944,336.697 93.167,336.165 93.167 C 336.075 93.167,335.719 93.419,335.375 93.728 C 335.031 94.037,334.563 94.347,334.336 94.418 C 334.108 94.489,333.656 94.723,333.332 94.938 C 333.007 95.152,332.152 95.479,331.431 95.663 C 330.709 95.848,330.032 96.071,329.925 96.159 C 329.133 96.817,321.193 96.848,319.802 96.199 C 319.372 95.998,318.642 95.753,318.181 95.654 C 317.719 95.555,317.060 95.283,316.716 95.050 C 316.372 94.816,315.790 94.519,315.423 94.390 C 314.346 94.009,313.202 93.119,311.260 91.148 C 309.590 89.454,308.984 88.709,308.101 87.266 C 307.928 86.982,307.604 86.476,307.381 86.141 C 307.159 85.806,306.877 85.206,306.754 84.808 C 306.631 84.409,306.343 83.671,306.114 83.167 C 305.884 82.662,305.643 81.912,305.578 81.500 C 305.513 81.087,305.317 80.468,305.142 80.123 C 303.938 77.746,303.824 63.536,304.989 60.903 C 305.164 60.508,305.434 59.599,305.590 58.884 C 305.745 58.169,306.080 57.208,306.334 56.750 C 306.588 56.292,306.851 55.729,306.917 55.500 C 306.984 55.271,307.217 54.845,307.436 54.553 C 307.654 54.261,307.908 53.826,307.999 53.586 C 308.848 51.352,313.124 47.337,316.473 45.628 C 317.330 45.191,318.161 44.833,318.322 44.833 C 318.482 44.833,319.207 44.675,319.932 44.481 C 320.657 44.288,321.512 44.066,321.833 43.989 C 322.996 43.711,327.816 43.925,328.917 44.304 M12.917 60.494 C 11.684 60.659,10.872 61.237,10.412 62.276 L 10.000 63.208 10.000 87.345 L 10.000 111.481 9.630 111.741 C 9.328 111.952,8.688 112.001,6.171 112.007 C 2.606 112.016,1.886 112.119,1.165 112.726 C 0.877 112.968,0.497 113.167,0.321 113.167 C 0.019 113.167,0.000 113.311,0.000 115.667 C 0.000 118.082,0.012 118.167,0.344 118.167 C 0.876 118.167,1.333 118.477,1.333 118.839 C 1.333 119.165,2.630 119.167,200.000 119.167 C 397.370 119.167,398.667 119.165,398.667 118.839 C 398.667 118.477,399.124 118.167,399.656 118.167 C 399.988 118.167,400.000 118.082,400.000 115.667 C 400.000 113.311,399.981 113.167,399.679 113.167 C 399.503 113.167,399.140 112.982,398.872 112.757 C 398.603 112.531,398.054 112.270,397.650 112.177 C 397.157 112.064,351.562 112.006,258.667 112.002 C 147.551 111.996,120.335 111.954,120.000 111.784 L 119.583 111.574 119.500 87.078 C 119.407 59.661,119.531 62.038,118.138 61.061 C 116.578 59.968,114.726 60.557,113.769 62.450 C 113.525 62.934,113.500 65.228,113.500 87.216 C 113.500 110.480,113.488 111.459,113.195 111.724 C 112.681 112.190,64.089 112.144,63.839 111.678 C 63.723 111.460,63.667 104.493,63.667 90.293 L 63.667 69.231 62.845 67.967 C 61.805 66.367,60.226 65.115,58.847 64.798 C 57.195 64.417,31.867 64.493,30.639 64.883 C 30.120 65.047,29.600 65.297,29.483 65.437 C 29.367 65.577,29.005 65.828,28.678 65.996 C 27.909 66.390,27.441 66.903,27.001 67.833 C 26.806 68.246,26.501 68.846,26.323 69.167 C 26.009 69.735,26.001 70.286,26.000 90.553 C 26.000 104.573,25.944 111.460,25.827 111.678 C 25.619 112.068,17.250 112.183,16.425 111.807 L 16.000 111.613 16.000 87.448 L 16.000 63.282 15.581 62.395 C 15.350 61.908,14.994 61.423,14.789 61.317 C 14.584 61.212,14.229 60.964,14.000 60.766 C 13.671 60.481,13.444 60.424,12.917 60.494 M79.215 64.748 C 76.960 65.157,74.970 66.865,74.180 69.068 L 73.757 70.250 73.706 83.146 C 73.662 94.281,73.689 96.135,73.905 96.729 C 74.042 97.107,74.234 97.729,74.330 98.111 C 74.606 99.203,76.438 101.174,77.500 101.521 C 77.821 101.626,78.443 101.892,78.882 102.113 L 79.682 102.513 88.966 102.465 L 98.250 102.417 99.528 101.785 C 100.786 101.164,102.667 99.351,102.667 98.760 C 102.667 98.643,102.859 98.264,103.093 97.918 C 103.762 96.932,103.831 95.561,103.832 83.064 C 103.833 71.004,103.803 70.422,103.082 68.900 C 102.854 68.416,102.665 67.960,102.663 67.885 C 102.659 67.701,101.243 66.281,100.375 65.590 C 99.151 64.616,97.939 64.508,88.333 64.520 C 82.574 64.527,80.089 64.590,79.215 64.748 M57.571 71.083 C 57.883 71.496,57.971 111.099,57.661 111.678 C 57.390 112.183,32.277 112.183,32.006 111.678 C 31.816 111.323,31.790 72.471,31.979 71.588 C 32.181 70.642,31.851 70.665,45.118 70.709 C 57.099 70.749,57.324 70.756,57.571 71.083 M97.125 70.998 L 97.667 71.328 97.667 83.256 C 97.667 96.203,97.690 95.875,96.755 96.301 C 95.958 96.664,80.786 96.578,80.463 96.208 C 79.625 95.253,79.650 95.689,79.702 83.148 L 79.750 71.471 80.218 71.069 L 80.685 70.667 88.634 70.667 C 96.265 70.668,96.605 70.681,97.125 70.998 " stroke="none" fill="#212187" fill-rule="evenodd"></path><path id="path1" d="M0.000 56.583 C 0.000 112.303,0.005 113.167,0.321 113.167 C 0.497 113.167,0.877 112.968,1.165 112.726 C 1.886 112.119,2.606 112.016,6.171 112.007 C 8.688 112.001,9.328 111.952,9.630 111.741 L 10.000 111.481 10.000 87.345 L 10.000 63.208 10.406 62.291 C 11.069 60.792,13.115 59.939,14.035 60.778 C 14.245 60.969,14.584 61.211,14.789 61.317 C 14.994 61.422,15.350 61.908,15.581 62.395 L 16.000 63.282 16.000 87.448 L 16.000 111.613 16.425 111.807 C 17.250 112.183,25.619 112.068,25.827 111.678 C 25.944 111.460,26.000 104.573,26.000 90.553 C 26.001 70.286,26.009 69.735,26.323 69.167 C 26.501 68.846,26.806 68.246,27.001 67.833 C 27.441 66.903,27.909 66.390,28.678 65.996 C 29.005 65.828,29.367 65.577,29.483 65.437 C 29.600 65.297,30.120 65.047,30.639 64.883 C 31.867 64.493,57.195 64.417,58.847 64.798 C 60.226 65.115,61.805 66.367,62.845 67.967 L 63.667 69.231 63.667 90.293 C 63.667 104.493,63.723 111.460,63.839 111.678 C 64.102 112.169,112.779 112.187,113.224 111.695 C 113.478 111.415,113.500 109.475,113.500 87.189 C 113.500 63.727,113.510 62.968,113.817 62.368 C 114.753 60.543,116.601 59.984,118.138 61.061 C 119.531 62.038,119.407 59.661,119.500 87.078 L 119.583 111.574 120.000 111.784 C 120.335 111.954,147.551 111.996,258.667 112.002 C 351.562 112.006,397.157 112.064,397.650 112.177 C 398.054 112.270,398.603 112.531,398.872 112.757 C 399.140 112.982,399.503 113.167,399.679 113.167 C 399.995 113.167,400.000 112.303,400.000 56.583 L 400.000 0.000 249.333 0.000 C 101.801 0.000,98.667 0.007,98.667 0.314 C 98.667 0.560,98.833 0.654,99.427 0.743 C 101.674 1.080,102.284 1.394,104.000 3.097 C 105.289 4.377,108.746 8.333,109.620 9.528 C 110.039 10.101,111.976 12.318,112.743 13.102 C 113.022 13.387,113.550 14.018,113.917 14.504 C 114.283 14.990,115.071 15.928,115.667 16.589 C 116.263 17.250,117.141 18.269,117.618 18.853 C 118.096 19.438,118.883 20.348,119.368 20.874 C 119.853 21.401,120.587 22.259,121.000 22.781 C 121.412 23.302,122.200 24.230,122.750 24.841 C 123.300 25.453,124.050 26.343,124.417 26.820 C 124.783 27.297,125.316 27.964,125.600 28.302 C 125.883 28.640,126.239 29.285,126.391 29.736 C 126.542 30.187,126.778 30.681,126.917 30.833 C 127.572 31.557,127.728 39.142,127.121 40.750 C 126.694 41.878,126.523 42.382,126.242 43.333 C 126.093 43.837,125.835 44.400,125.668 44.583 C 125.502 44.767,125.255 45.185,125.119 45.514 C 124.889 46.074,124.407 46.786,123.141 48.441 C 122.670 49.057,122.231 49.456,120.097 51.209 C 119.790 51.461,119.276 51.777,118.956 51.911 C 118.636 52.045,118.158 52.335,117.895 52.555 C 117.632 52.776,117.029 53.039,116.556 53.140 C 116.083 53.241,115.394 53.481,115.026 53.673 C 113.167 54.641,105.500 54.645,103.933 53.677 C 103.649 53.502,103.042 53.264,102.583 53.149 C 102.118 53.032,101.208 52.567,100.522 52.095 C 99.847 51.630,99.059 51.091,98.772 50.896 C 98.485 50.702,97.515 49.783,96.616 48.855 L 94.983 47.167 94.450 47.436 C 94.157 47.584,93.199 48.391,92.323 49.228 C 90.355 51.107,89.573 51.729,88.742 52.076 C 88.386 52.224,87.980 52.450,87.839 52.578 C 87.613 52.782,87.052 53.018,84.621 53.932 C 82.519 54.721,76.242 54.565,74.167 53.672 C 73.571 53.416,72.783 53.111,72.417 52.994 C 72.050 52.878,71.518 52.607,71.234 52.391 C 70.951 52.176,70.634 52.000,70.532 52.000 C 70.429 52.000,70.099 51.785,69.797 51.523 C 69.496 51.261,69.002 50.919,68.699 50.764 C 68.012 50.412,66.272 48.688,65.922 48.011 C 65.762 47.700,65.485 47.466,65.205 47.405 C 64.955 47.350,64.654 47.276,64.537 47.240 C 64.420 47.203,64.195 47.334,64.037 47.531 C 62.111 49.928,58.490 52.691,56.661 53.158 C 56.251 53.263,55.482 53.538,54.951 53.770 C 52.759 54.728,46.655 54.673,44.333 53.674 C 43.737 53.418,43.025 53.156,42.750 53.091 C 42.475 53.027,41.918 52.755,41.513 52.487 C 41.108 52.219,40.686 52.000,40.575 52.000 C 40.274 52.000,37.644 49.987,36.981 49.250 C 36.817 49.067,36.257 48.467,35.737 47.917 L 34.793 46.917 34.355 47.481 C 33.301 48.839,31.192 50.749,29.779 51.625 C 29.519 51.785,28.928 52.156,28.465 52.449 C 28.002 52.742,27.264 53.059,26.826 53.153 C 26.388 53.247,25.727 53.481,25.359 53.673 C 23.501 54.641,15.834 54.645,14.267 53.677 C 13.983 53.502,13.375 53.265,12.917 53.151 C 10.710 52.602,5.655 48.171,4.568 45.833 C 4.377 45.421,4.102 44.986,3.958 44.867 C 3.814 44.748,3.604 44.260,3.492 43.783 C 3.380 43.307,3.110 42.609,2.893 42.233 C 2.184 41.007,1.846 33.772,2.392 31.500 C 2.749 30.014,4.110 27.822,5.917 25.822 C 6.467 25.213,7.306 24.235,7.782 23.649 C 8.258 23.063,9.083 22.118,9.616 21.550 C 10.148 20.982,10.883 20.122,11.250 19.638 C 11.617 19.155,12.404 18.217,13.000 17.554 C 13.596 16.892,14.407 15.952,14.802 15.466 C 15.197 14.981,15.968 14.096,16.515 13.500 C 17.062 12.904,17.891 11.929,18.357 11.333 C 18.823 10.737,19.558 9.875,19.991 9.417 C 20.424 8.958,20.971 8.283,21.206 7.917 C 21.442 7.550,22.317 6.552,23.151 5.699 C 23.984 4.846,24.667 4.084,24.667 4.006 C 24.667 3.827,25.905 2.593,26.821 1.858 C 27.506 1.309,28.424 1.011,30.208 0.758 C 30.842 0.669,31.000 0.582,31.000 0.323 C 31.000 0.006,30.726 0.000,15.500 0.000 L 0.000 0.000 0.000 56.583 M30.417 6.954 C 30.012 7.053,27.800 9.325,27.207 10.250 C 26.972 10.617,26.389 11.329,25.912 11.833 C 24.514 13.310,23.500 14.500,23.500 14.663 C 23.500 14.746,22.750 15.587,21.834 16.532 C 20.917 17.477,20.167 18.337,20.167 18.444 C 20.167 18.550,19.413 19.450,18.492 20.444 C 17.571 21.437,16.700 22.469,16.557 22.736 C 16.413 23.004,15.813 23.716,15.223 24.320 C 13.480 26.101,13.219 26.395,12.993 26.833 C 12.875 27.063,12.097 27.986,11.264 28.886 C 10.431 29.786,9.600 30.765,9.417 31.062 C 9.233 31.358,8.924 31.770,8.729 31.977 C 7.677 33.091,7.942 38.974,9.158 41.500 C 10.628 44.556,11.729 45.707,14.583 47.174 C 15.133 47.457,15.771 47.791,16.000 47.916 C 17.352 48.656,22.441 48.554,24.083 47.754 C 24.542 47.530,25.179 47.231,25.500 47.089 C 26.774 46.525,28.763 44.728,29.617 43.370 C 29.774 43.121,30.074 42.705,30.285 42.446 C 30.495 42.186,30.667 41.841,30.667 41.677 C 30.667 41.514,30.901 40.942,31.187 40.406 C 31.644 39.549,31.720 39.210,31.822 37.591 C 31.981 35.033,32.449 34.296,34.218 33.819 C 36.343 33.247,37.742 34.593,37.885 37.347 C 37.935 38.309,38.076 39.040,38.314 39.578 C 38.509 40.019,38.773 40.782,38.902 41.274 C 39.157 42.249,39.491 42.725,41.242 44.602 C 42.622 46.082,43.896 47.096,44.583 47.261 C 44.858 47.327,45.446 47.562,45.888 47.783 C 47.489 48.584,52.086 48.661,53.543 47.912 C 53.840 47.760,54.483 47.494,54.972 47.321 C 56.681 46.720,59.073 44.411,60.382 42.101 C 61.203 40.652,61.288 40.353,61.498 38.176 C 61.852 34.517,63.433 33.048,66.041 33.958 C 67.270 34.388,67.247 34.335,68.100 38.667 C 68.397 40.169,68.689 41.166,68.980 41.667 C 69.219 42.079,69.509 42.632,69.624 42.894 C 69.837 43.380,70.079 43.665,71.410 45.000 C 72.712 46.306,73.734 47.109,74.250 47.233 C 74.525 47.298,75.122 47.544,75.577 47.779 C 77.300 48.670,82.509 48.655,83.833 47.755 C 84.154 47.537,84.732 47.276,85.118 47.175 C 85.504 47.074,85.866 46.915,85.924 46.822 C 85.981 46.729,86.306 46.478,86.646 46.263 C 87.601 45.660,89.238 43.894,89.833 42.825 C 89.971 42.578,90.213 42.195,90.371 41.973 C 90.684 41.535,91.506 38.333,91.818 36.336 C 92.437 32.371,97.368 32.908,97.748 36.982 C 97.969 39.345,98.151 40.112,98.822 41.500 C 100.301 44.562,101.397 45.708,104.250 47.174 C 104.800 47.457,105.438 47.791,105.667 47.916 C 107.019 48.656,112.108 48.554,113.750 47.754 C 114.208 47.530,114.846 47.231,115.167 47.089 C 116.999 46.278,119.766 43.323,120.332 41.574 C 120.449 41.213,120.741 40.579,120.981 40.167 C 121.409 39.429,121.417 39.363,121.417 36.250 L 121.417 33.083 120.917 32.269 C 120.642 31.821,120.176 31.184,119.881 30.852 C 119.586 30.521,118.986 29.808,118.547 29.267 C 118.109 28.726,117.200 27.639,116.529 26.850 C 115.857 26.062,115.107 25.170,114.862 24.868 C 114.617 24.566,114.154 24.033,113.833 23.684 C 112.954 22.726,112.149 21.806,111.500 21.016 C 111.179 20.625,110.329 19.618,109.611 18.778 C 108.892 17.937,108.083 16.987,107.813 16.667 C 106.816 15.484,106.071 14.624,105.583 14.091 C 105.308 13.791,104.844 13.254,104.552 12.898 C 103.791 11.969,101.393 9.158,100.943 8.667 C 100.733 8.438,100.420 8.034,100.247 7.769 C 99.595 6.773,101.862 6.832,64.797 6.853 C 46.071 6.863,30.600 6.909,30.417 6.954 M225.083 16.663 C 226.275 16.746,227.585 16.934,227.995 17.080 C 228.405 17.225,229.455 17.459,230.329 17.599 C 231.202 17.739,232.155 17.993,232.446 18.164 C 232.738 18.335,233.450 18.596,234.030 18.744 C 234.609 18.892,235.346 19.195,235.667 19.417 C 235.987 19.638,236.585 19.938,236.995 20.082 C 237.405 20.226,237.893 20.483,238.079 20.653 C 238.265 20.822,238.666 21.087,238.970 21.241 C 239.274 21.395,239.971 21.872,240.518 22.302 C 241.065 22.732,241.754 23.256,242.048 23.466 C 243.825 24.737,246.393 28.105,247.665 30.833 C 247.857 31.246,248.229 32.033,248.491 32.583 C 248.753 33.133,249.056 34.066,249.165 34.655 C 249.273 35.245,249.509 36.101,249.690 36.558 C 250.164 37.763,250.314 40.500,249.937 41.075 L 249.659 41.500 246.583 41.500 C 242.931 41.500,243.095 41.601,242.941 39.250 C 242.837 37.662,241.829 34.270,241.190 33.359 C 241.019 33.116,240.790 32.641,240.681 32.305 C 240.572 31.969,240.369 31.599,240.229 31.483 C 240.090 31.367,239.821 30.967,239.632 30.594 C 239.247 29.834,236.716 27.262,235.849 26.750 C 235.538 26.567,234.998 26.265,234.649 26.080 C 234.300 25.895,233.805 25.548,233.549 25.310 C 233.293 25.072,232.835 24.831,232.532 24.774 C 232.229 24.717,231.517 24.445,230.951 24.169 C 230.385 23.893,229.781 23.667,229.609 23.667 C 229.437 23.667,228.311 23.448,227.106 23.180 C 223.620 22.404,218.473 22.359,215.833 23.081 C 215.329 23.219,214.247 23.449,213.429 23.593 C 212.586 23.741,211.647 24.025,211.262 24.248 C 210.889 24.465,210.300 24.694,209.953 24.757 C 209.606 24.821,209.060 25.050,208.740 25.268 C 208.420 25.485,207.916 25.787,207.620 25.938 C 206.664 26.428,202.833 29.951,202.833 30.341 C 202.833 30.404,202.665 30.667,202.458 30.925 C 202.252 31.184,201.886 31.963,201.645 32.656 C 201.403 33.349,201.074 34.254,200.913 34.667 C 200.360 36.081,200.480 40.451,201.112 41.917 C 201.389 42.558,201.742 43.430,201.897 43.855 C 202.052 44.279,202.326 44.759,202.506 44.922 C 202.686 45.085,202.833 45.316,202.833 45.436 C 202.833 45.753,204.802 47.815,205.586 48.319 C 205.955 48.556,206.405 48.885,206.586 49.049 C 207.127 49.539,208.713 50.528,209.250 50.710 C 209.525 50.803,209.975 51.045,210.250 51.248 C 210.525 51.450,211.050 51.713,211.417 51.831 C 211.783 51.949,212.295 52.195,212.554 52.377 C 212.813 52.558,213.601 52.853,214.304 53.032 C 215.008 53.211,215.751 53.465,215.957 53.598 C 216.162 53.730,216.987 54.018,217.790 54.237 C 218.593 54.455,219.481 54.753,219.763 54.899 C 220.046 55.044,220.906 55.282,221.675 55.428 C 222.445 55.574,223.488 55.868,223.995 56.081 C 224.502 56.294,225.363 56.551,225.908 56.651 C 226.454 56.752,227.193 56.987,227.551 57.174 C 227.909 57.360,228.692 57.627,229.291 57.766 C 229.890 57.904,230.730 58.195,231.158 58.412 C 231.585 58.629,232.215 58.859,232.557 58.923 C 232.898 58.987,233.433 59.212,233.745 59.424 C 234.056 59.635,234.782 59.929,235.357 60.076 C 235.932 60.224,236.524 60.455,236.674 60.590 C 236.823 60.725,237.412 61.079,237.983 61.376 C 238.554 61.673,239.375 62.104,239.808 62.333 C 241.470 63.214,245.022 66.021,245.539 66.863 C 245.698 67.122,245.900 67.333,245.987 67.333 C 246.159 67.333,246.893 68.319,247.599 69.500 C 247.846 69.912,248.223 70.514,248.436 70.836 C 248.650 71.158,248.968 71.839,249.144 72.350 C 249.320 72.861,249.594 73.533,249.755 73.842 C 251.003 76.256,250.908 84.730,249.602 87.545 C 249.380 88.025,249.149 88.653,249.089 88.943 C 249.029 89.232,248.722 89.832,248.407 90.276 C 248.091 90.719,247.833 91.168,247.833 91.274 C 247.833 91.379,247.642 91.642,247.409 91.858 C 247.175 92.073,246.845 92.513,246.675 92.833 C 246.285 93.570,243.664 96.083,242.583 96.757 C 242.308 96.928,241.837 97.278,241.536 97.534 C 241.235 97.790,240.884 98.000,240.757 98.000 C 240.630 98.000,240.302 98.188,240.028 98.419 C 239.754 98.649,239.205 98.951,238.807 99.090 C 238.409 99.229,237.708 99.523,237.250 99.745 C 236.792 99.966,235.967 100.293,235.417 100.471 C 234.867 100.650,234.107 100.913,233.728 101.057 C 233.350 101.200,232.375 101.430,231.562 101.568 C 230.749 101.705,229.371 101.970,228.500 102.156 C 225.470 102.802,217.653 102.762,215.395 102.088 C 214.925 101.947,213.586 101.686,212.419 101.507 C 211.251 101.328,210.125 101.069,209.916 100.932 C 209.707 100.794,209.021 100.563,208.393 100.418 C 207.764 100.273,206.972 99.970,206.632 99.746 C 206.292 99.521,205.657 99.258,205.220 99.160 C 204.783 99.062,204.092 98.761,203.684 98.491 C 203.276 98.221,202.843 98.000,202.722 98.000 C 202.600 98.000,202.210 97.737,201.855 97.417 C 201.500 97.096,201.131 96.833,201.034 96.833 C 200.938 96.833,200.534 96.589,200.138 96.290 C 199.741 95.991,199.229 95.623,199.000 95.472 C 198.463 95.119,196.160 92.893,195.833 92.413 C 194.649 90.671,194.198 90.051,193.875 89.726 C 193.669 89.518,193.500 89.247,193.500 89.124 C 193.500 89.000,193.273 88.540,192.995 88.102 C 192.717 87.664,192.389 86.880,192.267 86.361 C 192.144 85.842,191.880 85.104,191.679 84.722 C 191.413 84.216,191.250 83.424,191.077 81.806 C 190.750 78.741,190.762 78.347,191.196 77.886 C 191.907 77.129,197.639 77.405,197.845 78.206 C 197.851 78.230,197.990 79.388,198.154 80.779 C 198.358 82.503,198.558 83.510,198.784 83.945 C 198.966 84.296,199.212 84.883,199.330 85.250 C 199.448 85.617,199.797 86.264,200.106 86.689 C 200.414 87.114,200.667 87.529,200.667 87.613 C 200.667 88.040,204.622 92.000,205.049 92.000 C 205.170 92.000,205.525 92.189,205.838 92.420 C 206.386 92.825,209.333 94.333,209.576 94.333 C 209.641 94.333,210.208 94.559,210.837 94.835 C 211.617 95.177,212.656 95.439,214.114 95.660 C 215.289 95.838,216.563 96.094,216.945 96.230 C 218.618 96.822,225.351 96.727,227.869 96.074 C 228.442 95.926,229.485 95.703,230.188 95.580 C 230.890 95.456,231.829 95.167,232.274 94.938 C 232.719 94.709,233.360 94.471,233.698 94.410 C 234.036 94.350,234.687 94.064,235.143 93.775 C 235.600 93.486,236.186 93.119,236.445 92.958 C 238.084 91.943,239.335 90.921,240.083 89.982 C 240.450 89.522,240.984 88.870,241.270 88.531 C 241.555 88.193,241.845 87.729,241.913 87.500 C 241.981 87.271,242.249 86.708,242.508 86.248 C 243.094 85.209,243.703 81.337,243.485 80.040 C 243.412 79.605,243.265 78.484,243.158 77.547 C 243.036 76.473,242.846 75.642,242.645 75.297 C 242.469 74.996,242.143 74.361,241.919 73.885 C 241.119 72.182,237.795 68.693,236.715 68.423 C 236.459 68.360,236.025 68.137,235.750 67.929 C 235.475 67.721,234.950 67.455,234.583 67.338 C 234.217 67.221,233.692 66.959,233.417 66.756 C 233.142 66.553,232.555 66.250,232.113 66.083 C 231.671 65.916,231.146 65.651,230.946 65.495 C 230.747 65.338,230.173 65.123,229.670 65.016 C 229.168 64.908,228.443 64.636,228.059 64.411 C 227.674 64.186,226.847 63.886,226.221 63.745 C 225.595 63.605,224.671 63.310,224.167 63.091 C 223.662 62.872,222.815 62.614,222.283 62.517 C 221.752 62.421,220.964 62.185,220.533 61.994 C 220.103 61.802,219.054 61.505,218.204 61.334 C 217.353 61.162,216.415 60.876,216.120 60.700 C 215.825 60.523,215.097 60.286,214.502 60.173 C 213.907 60.060,213.120 59.794,212.752 59.581 C 212.384 59.368,211.746 59.111,211.333 59.009 C 210.650 58.840,209.358 58.276,207.833 57.482 C 207.512 57.315,206.912 57.023,206.500 56.834 C 206.088 56.645,205.563 56.381,205.333 56.248 C 205.104 56.114,204.542 55.825,204.083 55.605 C 203.625 55.385,203.102 55.041,202.920 54.839 C 202.739 54.637,202.337 54.367,202.028 54.238 C 201.720 54.109,201.043 53.615,200.525 53.141 C 200.007 52.667,199.360 52.143,199.087 51.977 C 198.607 51.684,198.386 51.425,196.871 49.379 C 195.327 47.295,194.610 45.785,193.842 43.000 C 193.196 40.655,193.280 34.246,193.975 32.881 C 194.152 32.534,194.417 31.845,194.563 31.351 C 194.710 30.856,195.048 30.106,195.314 29.684 C 195.580 29.262,195.853 28.732,195.921 28.507 C 196.243 27.438,200.204 22.976,201.445 22.285 C 201.644 22.174,202.153 21.858,202.576 21.583 C 203.000 21.308,203.623 20.905,203.962 20.687 C 204.300 20.470,204.878 20.185,205.246 20.056 C 205.615 19.926,206.179 19.640,206.500 19.421 C 206.821 19.202,207.383 18.971,207.750 18.907 C 208.117 18.843,208.867 18.580,209.417 18.323 C 210.034 18.034,211.069 17.755,212.122 17.591 C 213.060 17.446,214.035 17.246,214.289 17.146 C 215.704 16.591,220.790 16.363,225.083 16.663 M274.741 23.704 C 274.965 24.025,275.001 25.030,275.005 31.245 C 275.010 37.378,275.047 38.465,275.262 38.750 C 275.504 39.071,275.742 39.085,281.496 39.136 C 288.573 39.199,287.851 38.883,287.960 41.961 C 288.072 45.114,288.750 44.810,281.477 44.869 C 276.716 44.907,275.496 44.962,275.272 45.148 C 275.013 45.363,274.996 46.993,275.038 67.565 L 275.083 89.750 275.647 91.333 C 277.171 95.616,280.557 97.191,286.348 96.310 C 288.682 95.955,289.000 96.313,289.000 99.302 C 289.000 101.420,288.989 101.437,287.333 101.976 C 284.624 102.859,280.023 102.866,277.223 101.993 C 276.321 101.712,275.321 101.400,275.000 101.300 C 274.679 101.201,274.205 100.943,273.946 100.726 C 273.686 100.510,273.404 100.333,273.317 100.333 C 272.918 100.333,270.491 97.505,270.170 96.667 C 270.047 96.346,269.781 95.857,269.578 95.581 C 269.354 95.276,269.130 94.591,269.004 93.831 C 268.891 93.145,268.640 91.983,268.447 91.250 C 268.099 89.930,268.095 89.688,268.046 67.667 L 267.996 45.417 267.646 45.125 C 267.331 44.862,266.820 44.833,262.435 44.833 C 256.312 44.833,256.788 45.060,256.862 42.182 C 256.905 40.503,256.978 39.974,257.212 39.617 L 257.508 39.167 262.368 39.167 C 267.129 39.167,267.236 39.159,267.614 38.804 L 268.000 38.442 268.000 31.241 C 268.000 25.187,268.038 24.009,268.239 23.842 C 269.016 23.198,274.307 23.085,274.741 23.704 M160.878 38.400 C 161.908 38.620,163.147 38.852,163.631 38.916 C 164.116 38.981,164.829 39.201,165.215 39.407 C 165.602 39.612,166.218 39.878,166.584 39.997 C 168.911 40.751,172.940 43.736,174.754 46.049 C 175.969 47.597,176.688 48.626,176.932 49.167 C 177.078 49.487,177.406 50.087,177.662 50.500 C 177.919 50.913,178.175 51.518,178.233 51.845 C 178.290 52.173,178.521 52.689,178.745 52.993 C 178.969 53.297,179.235 53.967,179.337 54.481 C 179.438 54.996,179.695 55.867,179.907 56.417 C 180.680 58.416,181.461 67.120,181.089 69.601 C 180.920 70.732,182.289 70.667,158.863 70.667 C 139.865 70.667,137.534 70.695,137.204 70.926 C 136.568 71.371,136.768 76.518,137.514 78.917 C 137.713 79.558,137.976 80.554,138.097 81.130 C 138.219 81.706,138.462 82.381,138.637 82.630 C 138.813 82.879,139.076 83.496,139.223 84.000 C 139.369 84.504,139.622 85.101,139.786 85.327 C 139.950 85.552,140.271 86.052,140.500 86.437 C 141.882 88.761,145.135 92.394,146.399 93.027 C 146.775 93.215,147.308 93.576,147.583 93.829 C 147.858 94.082,148.330 94.371,148.632 94.472 C 148.934 94.572,149.395 94.807,149.656 94.992 C 149.917 95.178,150.645 95.439,151.274 95.572 C 151.902 95.704,152.792 95.981,153.250 96.186 C 154.848 96.901,162.234 96.820,163.687 96.072 C 163.928 95.948,164.672 95.732,165.341 95.593 C 166.009 95.454,166.825 95.159,167.153 94.938 C 167.481 94.717,168.026 94.449,168.364 94.342 C 168.701 94.236,169.255 93.927,169.595 93.657 C 169.935 93.388,170.303 93.167,170.415 93.167 C 170.605 93.167,174.242 89.656,174.881 88.855 C 175.238 88.407,175.601 88.476,176.611 89.182 C 176.992 89.448,177.367 89.670,177.444 89.674 C 178.008 89.705,179.375 91.348,179.287 91.890 C 179.062 93.276,174.071 98.105,171.816 99.119 C 171.569 99.230,171.094 99.506,170.761 99.732 C 170.428 99.958,169.914 100.193,169.619 100.256 C 169.325 100.318,168.706 100.582,168.246 100.842 C 167.772 101.109,166.928 101.392,166.302 101.492 C 165.694 101.589,164.716 101.817,164.129 101.998 C 161.860 102.699,155.110 102.839,152.935 102.231 C 152.467 102.100,151.203 101.809,150.126 101.585 C 148.922 101.335,147.986 101.043,147.694 100.827 C 147.433 100.634,146.898 100.404,146.505 100.316 C 146.112 100.228,145.520 99.933,145.190 99.661 C 144.861 99.389,144.468 99.167,144.318 99.167 C 143.985 99.167,141.500 97.549,141.500 97.332 C 141.500 97.246,141.256 97.050,140.958 96.897 C 140.660 96.743,139.967 96.221,139.417 95.735 C 138.500 94.927,137.896 94.250,136.116 92.038 C 135.767 91.605,135.337 91.091,135.161 90.897 C 134.984 90.702,134.684 90.177,134.492 89.730 C 134.301 89.283,134.002 88.765,133.828 88.579 C 133.654 88.393,133.393 87.906,133.249 87.498 C 133.105 87.090,132.876 86.585,132.739 86.376 C 132.503 86.017,131.726 84.030,131.255 82.583 C 131.002 81.806,130.404 79.224,130.117 77.667 C 129.782 75.854,129.873 64.334,130.231 63.167 C 130.386 62.663,130.665 61.387,130.851 60.333 C 131.037 59.279,131.331 58.139,131.505 57.799 C 131.679 57.459,131.942 56.709,132.091 56.132 C 132.239 55.555,132.580 54.752,132.847 54.346 C 133.115 53.941,133.333 53.483,133.333 53.328 C 133.333 53.173,133.522 52.769,133.752 52.430 C 133.982 52.091,134.311 51.537,134.484 51.199 C 136.250 47.743,141.071 43.038,144.750 41.181 C 145.300 40.904,145.862 40.606,146.000 40.520 C 146.945 39.929,148.978 39.152,150.170 38.927 C 150.947 38.780,151.996 38.551,152.500 38.418 C 153.936 38.041,153.946 38.040,156.544 38.019 C 158.563 38.003,159.342 38.072,160.878 38.400 M328.097 38.179 C 332.036 38.892,333.510 39.231,334.177 39.577 C 334.595 39.793,335.270 40.057,335.677 40.164 C 336.084 40.271,336.680 40.529,337.002 40.739 C 337.324 40.948,337.756 41.173,337.961 41.238 C 338.167 41.303,338.553 41.540,338.819 41.764 C 339.086 41.988,339.591 42.291,339.943 42.436 C 340.567 42.695,340.786 42.869,342.231 44.250 C 342.614 44.617,343.301 45.266,343.756 45.694 C 344.211 46.121,344.871 46.796,345.223 47.194 C 345.575 47.591,346.034 48.104,346.243 48.333 C 346.453 48.563,346.755 49.012,346.916 49.333 C 347.076 49.654,347.310 50.034,347.436 50.178 C 347.706 50.488,349.240 53.444,349.413 53.989 C 349.479 54.197,349.709 54.626,349.923 54.942 C 350.138 55.258,350.399 55.930,350.504 56.435 C 350.609 56.941,350.872 57.743,351.089 58.219 C 351.317 58.719,351.560 59.716,351.666 60.583 C 351.767 61.408,351.955 62.496,352.083 63.000 C 352.633 65.158,352.899 72.839,352.507 75.250 C 351.794 79.642,351.290 82.061,350.924 82.850 C 350.694 83.345,350.423 84.162,350.320 84.667 C 350.217 85.171,350.000 85.733,349.837 85.917 C 349.675 86.100,349.416 86.638,349.262 87.112 C 349.108 87.586,348.865 88.071,348.723 88.189 C 348.581 88.307,348.283 88.781,348.060 89.243 C 347.424 90.565,346.714 91.726,346.372 92.002 C 346.199 92.142,345.916 92.480,345.742 92.753 C 344.868 94.128,343.275 95.699,341.098 97.333 C 340.670 97.654,340.031 98.148,339.677 98.431 C 339.323 98.714,338.782 99.047,338.475 99.171 C 338.168 99.295,337.692 99.560,337.417 99.761 C 337.142 99.961,336.617 100.219,336.250 100.334 C 335.883 100.448,335.204 100.719,334.741 100.934 C 334.278 101.150,333.341 101.434,332.658 101.566 C 331.975 101.698,331.192 101.893,330.917 102.001 C 328.780 102.836,321.359 102.850,318.979 102.024 C 318.463 101.845,317.489 101.613,316.814 101.508 C 316.138 101.404,315.286 101.144,314.918 100.931 C 314.551 100.719,313.950 100.451,313.583 100.335 C 313.217 100.220,312.692 99.959,312.417 99.755 C 312.142 99.551,311.647 99.296,311.318 99.188 C 310.100 98.788,304.523 94.244,304.504 93.635 C 304.502 93.572,304.200 93.174,303.833 92.750 C 303.467 92.326,303.167 91.916,303.167 91.839 C 303.167 91.762,302.904 91.384,302.583 91.000 C 302.262 90.616,302.000 90.208,302.000 90.093 C 302.000 89.977,301.768 89.563,301.484 89.171 C 301.201 88.780,300.888 88.225,300.789 87.938 C 300.691 87.651,300.440 87.154,300.232 86.833 C 300.024 86.513,299.801 86.025,299.736 85.750 C 299.672 85.475,299.434 84.881,299.209 84.430 C 298.983 83.978,298.657 82.906,298.484 82.047 C 298.311 81.187,298.087 80.329,297.985 80.139 C 296.981 78.263,296.883 63.454,297.859 60.917 C 298.035 60.458,298.318 59.403,298.489 58.570 C 298.659 57.738,298.994 56.672,299.233 56.201 C 299.471 55.730,299.667 55.236,299.667 55.103 C 299.667 54.970,299.918 54.386,300.226 53.806 C 300.534 53.225,300.842 52.563,300.912 52.333 C 300.982 52.104,301.207 51.692,301.412 51.417 C 301.617 51.142,301.948 50.598,302.146 50.208 C 302.344 49.819,302.579 49.500,302.667 49.500 C 302.755 49.500,302.984 49.192,303.176 48.815 C 304.089 47.025,309.379 42.333,311.769 41.194 C 312.329 40.927,312.839 40.626,312.901 40.525 C 312.963 40.425,313.496 40.194,314.085 40.012 C 314.674 39.830,315.389 39.560,315.674 39.413 C 315.959 39.265,317.061 38.998,318.122 38.820 C 319.183 38.641,320.396 38.389,320.817 38.259 C 321.759 37.969,326.643 37.915,328.097 38.179 M393.739 38.275 C 395.473 38.747,395.500 38.800,395.500 41.753 C 395.500 45.088,395.941 44.793,390.833 44.864 L 386.750 44.921 384.833 45.571 C 383.779 45.928,382.767 46.346,382.583 46.499 C 382.400 46.653,381.912 46.981,381.500 47.229 C 379.654 48.339,377.078 50.971,376.417 52.423 C 376.207 52.885,375.919 53.360,375.777 53.478 C 375.635 53.596,375.397 54.057,375.249 54.503 C 375.101 54.949,374.838 55.494,374.666 55.713 C 373.757 56.869,373.774 56.449,373.714 79.635 L 373.658 101.021 373.084 101.260 C 372.145 101.653,367.476 101.600,367.107 101.193 C 366.722 100.767,366.759 39.907,367.145 39.442 C 367.409 39.124,372.261 39.027,372.824 39.328 C 373.442 39.659,373.667 40.690,373.669 43.212 C 373.671 46.075,373.771 46.788,374.203 47.020 C 374.561 47.211,375.167 46.816,375.167 46.392 C 375.167 45.869,378.999 41.863,380.000 41.339 C 380.321 41.172,380.793 40.840,381.049 40.602 C 381.305 40.364,381.717 40.122,381.965 40.065 C 382.214 40.008,382.730 39.782,383.112 39.564 C 383.495 39.346,384.320 39.055,384.946 38.917 C 385.571 38.780,386.683 38.524,387.417 38.349 C 389.182 37.927,392.326 37.890,393.739 38.275 M153.917 44.019 C 153.367 44.099,152.654 44.269,152.333 44.396 C 152.012 44.524,151.329 44.715,150.814 44.821 C 150.300 44.927,149.632 45.197,149.329 45.420 C 149.027 45.643,148.510 45.911,148.181 46.016 C 147.852 46.122,147.433 46.342,147.250 46.505 C 147.067 46.669,146.617 46.959,146.250 47.149 C 145.532 47.523,143.155 49.678,142.697 50.372 C 142.543 50.604,141.996 51.422,141.481 52.189 C 140.966 52.956,140.458 53.852,140.352 54.181 C 140.245 54.510,139.973 55.031,139.746 55.339 C 139.519 55.646,139.333 55.968,139.333 56.053 C 139.333 56.138,139.077 56.780,138.765 57.479 C 138.452 58.178,138.113 59.300,138.011 59.973 C 137.909 60.645,137.719 61.451,137.588 61.765 C 137.059 63.032,136.956 64.220,137.348 64.542 C 137.783 64.898,172.631 65.003,173.642 64.650 L 174.167 64.467 174.167 63.216 C 174.167 62.528,174.060 61.541,173.929 61.024 C 173.798 60.507,173.604 59.483,173.497 58.750 C 173.390 58.017,173.093 56.929,172.836 56.333 C 172.579 55.737,172.318 55.009,172.256 54.714 C 172.193 54.419,171.966 53.918,171.751 53.601 C 171.536 53.283,171.202 52.699,171.009 52.303 C 169.779 49.774,167.301 47.262,164.755 45.961 C 164.391 45.775,163.904 45.485,163.672 45.316 C 163.440 45.147,162.612 44.857,161.833 44.670 C 161.054 44.484,160.007 44.219,159.505 44.082 C 158.502 43.808,155.596 43.775,153.917 44.019 M321.833 43.989 C 321.512 44.066,320.657 44.288,319.932 44.481 C 319.207 44.675,318.482 44.833,318.322 44.833 C 317.229 44.833,313.231 47.432,311.253 49.429 C 310.067 50.626,308.234 52.968,307.999 53.586 C 307.908 53.826,307.654 54.261,307.436 54.553 C 307.217 54.845,306.984 55.271,306.917 55.500 C 306.851 55.729,306.588 56.292,306.334 56.750 C 306.080 57.208,305.745 58.169,305.590 58.884 C 305.434 59.599,305.164 60.508,304.989 60.903 C 303.824 63.536,303.938 77.746,305.142 80.123 C 305.317 80.468,305.513 81.087,305.578 81.500 C 305.643 81.912,305.884 82.662,306.114 83.167 C 306.343 83.671,306.631 84.409,306.754 84.808 C 306.877 85.206,307.159 85.806,307.381 86.141 C 307.604 86.476,307.928 86.982,308.101 87.266 C 309.842 90.113,313.563 93.733,315.423 94.390 C 315.790 94.519,316.372 94.816,316.716 95.050 C 317.060 95.283,317.719 95.555,318.181 95.654 C 318.642 95.753,319.372 95.998,319.802 96.199 C 321.193 96.848,329.133 96.817,329.925 96.159 C 330.032 96.071,330.709 95.848,331.431 95.663 C 332.152 95.479,333.007 95.152,333.332 94.938 C 333.656 94.723,334.108 94.489,334.336 94.418 C 334.563 94.347,335.031 94.037,335.375 93.728 C 335.719 93.419,336.075 93.167,336.165 93.167 C 336.697 93.167,340.643 88.944,341.074 87.914 C 341.225 87.551,341.484 87.104,341.648 86.919 C 341.812 86.734,342.047 86.321,342.171 86.000 C 342.295 85.679,342.565 85.190,342.772 84.913 C 342.979 84.636,343.225 84.066,343.319 83.646 C 343.413 83.226,343.677 82.515,343.906 82.066 C 344.135 81.617,344.441 80.544,344.588 79.678 C 344.734 78.814,344.960 77.853,345.089 77.543 C 345.798 75.848,345.878 65.933,345.201 63.833 C 345.008 63.237,344.734 62.015,344.590 61.116 C 344.446 60.213,344.154 59.132,343.938 58.699 C 343.722 58.269,343.450 57.617,343.332 57.250 C 343.215 56.883,342.905 56.179,342.643 55.685 C 342.381 55.191,342.166 54.703,342.166 54.602 C 342.166 54.385,341.009 52.579,340.539 52.060 C 340.361 51.863,340.038 51.451,339.822 51.143 C 339.606 50.835,339.344 50.508,339.239 50.417 C 339.135 50.325,338.837 49.962,338.577 49.610 C 338.317 49.258,337.656 48.658,337.107 48.277 C 336.559 47.895,335.724 47.316,335.252 46.990 C 333.668 45.895,331.844 44.991,330.871 44.818 C 330.346 44.725,329.467 44.493,328.917 44.304 C 327.816 43.925,322.996 43.711,321.833 43.989 M97.500 64.670 C 99.394 64.912,99.610 64.981,100.375 65.590 C 101.243 66.281,102.659 67.701,102.663 67.885 C 102.665 67.960,102.854 68.416,103.082 68.900 C 103.803 70.422,103.833 71.004,103.832 83.064 C 103.831 95.561,103.762 96.932,103.093 97.918 C 102.859 98.264,102.667 98.643,102.667 98.760 C 102.667 99.351,100.786 101.164,99.528 101.785 L 98.250 102.417 88.966 102.465 L 79.682 102.513 78.882 102.113 C 78.443 101.892,77.821 101.626,77.500 101.521 C 76.438 101.174,74.606 99.203,74.330 98.111 C 74.234 97.729,74.042 97.107,73.905 96.729 C 73.689 96.135,73.662 94.281,73.706 83.146 L 73.757 70.250 74.180 69.068 C 74.970 66.865,76.960 65.157,79.215 64.748 C 80.674 64.483,95.543 64.420,97.500 64.670 M32.501 70.880 C 32.256 71.005,32.041 71.296,31.979 71.588 C 31.790 72.471,31.816 111.323,32.006 111.678 C 32.277 112.183,57.390 112.183,57.661 111.678 C 57.971 111.099,57.883 71.496,57.571 71.083 C 57.253 70.663,33.308 70.469,32.501 70.880 M80.218 71.069 L 79.750 71.471 79.702 83.148 C 79.650 95.689,79.625 95.253,80.463 96.208 C 80.786 96.578,95.958 96.664,96.755 96.301 C 97.690 95.875,97.667 96.203,97.667 83.256 L 97.667 71.328 97.125 70.998 C 96.605 70.681,96.265 70.668,88.634 70.667 L 80.685 70.667 80.218 71.069 M0.000 118.667 C 0.000 119.139,0.037 119.167,0.667 119.167 C 1.417 119.167,1.624 118.668,1.011 118.339 C 0.377 118.000,0.000 118.122,0.000 118.667 M398.958 118.347 C 398.378 118.685,398.598 119.167,399.333 119.167 C 399.963 119.167,400.000 119.139,400.000 118.667 C 400.000 118.126,399.566 117.993,398.958 118.347 " stroke="none" fill="#ffffff" fill-rule="evenodd"></path></g></svg>